<?xml version="1.0" encoding="UTF-8"?>
<svg xmlns="http://www.w3.org/2000/svg" version="1.1" viewBox="0 0 1351 364">
	<path fill="#f8f8f8" d="M194,309.45c52.36-8.49,95.06-49.16,106.49-101.45,2.48-11.37,3.03-34.32,1.12-46.83-4.2-27.49-16.45-51.27-36.98-71.8-24.51-24.51-51.84-36.58-86.13-38.04-36.68-1.56-69.17,10.8-95.58,36.36-16.08,15.57-27.29,33.47-33.75,53.93-4.61,14.6-5.66,22.09-5.65,40.38.01,17.12.68,21.98,5.13,37,9.71,32.77,35.44,63.01,67.17,78.93,8.85,4.44,25.31,9.79,35.27,11.46,11.4,1.91,31.32,1.94,42.9.06h0ZM157.18,303c-21.44-3.03-42.81-11.99-59.75-25.05-8.43-6.51-21.01-20.24-27.11-29.59-36.86-56.55-21.26-132.37,34.94-169.73,28.96-19.25,65.77-25.19,99.74-16.08,55.47,14.87,93.78,67.49,90.62,124.45-1.76,31.75-13.57,58.21-35.99,80.63-17.57,17.57-36.43,27.98-60.63,33.47-9.83,2.23-32.27,3.25-41.82,1.9h0ZM199,297.12c65.97-15.05,106.07-81.18,88.93-146.67-11.44-43.71-48.35-77.73-93.93-86.58-9.88-1.92-33.82-1.65-43.8.49-24.62,5.28-43.24,15.39-60.79,33-17.83,17.89-27.82,36.29-33.02,60.83-2.45,11.55-2.44,34.32.01,45.8,7.25,33.87,26.9,61.75,55.73,79.08,13.51,8.12,29.3,13.7,45.08,15.92,9.65,1.36,32.01.36,41.79-1.88h0ZM159.94,291.16c-6.57-5.32,1.59-16.15,9.12-12.12,1.06.57,1.93,1.69,1.93,2.5,0,1.11-.49.98-2-.54-4.57-4.57-10.11-.08-8.41,6.82.79,3.21,1.33,3.72,4.23,4,1.82.18,3.97-.23,4.77-.89,1.19-.99,1.34-.91.83.43-.88,2.3-7.54,2.17-10.47-.2ZM176.67,291.16c.26-1.01.06-4.16-.46-7-.85-4.7-.77-5.16.93-5.16s1.86.81,1.86,6.03c0,6.97,1.51,8.36,6.17,5.69,3.18-1.83,3.58-1.61,1.26.71-.95.95-3.3,1.57-5.91,1.57-3.72,0-4.27-.26-3.85-1.84h0ZM146.82,290.32c-1.4-.37-1.51-.93-.65-3.4.79-2.28.65-3.9-.61-7.07-1.79-4.47-1.56-5.46,1.04-4.46.93.36,1.43.9,1.12,1.21s-.09,1.9.48,3.54l1.04,2.98,2.35-2.21c1.29-1.21,2.11-2.59,1.82-3.06-.29-.47.17-.85,1.03-.85,2.42,0,1.87,1.36-1.94,4.73-3.21,2.84-4.01,4.64-3.57,8.02.09.69.03,1.2-.13,1.13-.16-.06-1.05-.32-1.97-.56h0ZM193,289.22c0-.98-.61-4.13-1.35-7-1.27-4.9-1.24-5.22.5-5.22,1.02,0,1.76.34,1.66.75-.42,1.59,1.44,10.81,2.41,12,.77.93.49,1.25-1.09,1.25-1.37,0-2.12-.63-2.12-1.78h0ZM201.62,287.45c-.94-2.44-.75-2.98.58-1.65,1.73,1.73,5.76,1.48,6.48-.4.74-1.93-1.26-3.36-4.73-3.38-5.14-.03-6.69-4.83-2.46-7.6,2.54-1.66,5.51-1.34,5.51.59,0,.72-.59.75-1.8.1-.99-.53-2.41-.59-3.15-.14-2.24,1.38-.38,3.88,3.42,4.59,5.65,1.06,7.15,6.56,2.18,7.98-1.19.34-2.89.82-3.79,1.07-.9.25-1.91-.27-2.25-1.16h0ZM129.23,284.45c-3.46-2.42-4.35-4.81-3.11-8.37,1.24-3.57,3.52-5.09,7.56-5.05,3.52.04,6.34,2.1,6.25,4.58-.06,1.66-.2,1.62-1.14-.34-2.18-4.51-7.8-4.08-9.8.74-2.34,5.64,1.42,10.58,6.56,8.61.89-.34,1.29-.18.94.39-.92,1.49-4.76,1.19-7.26-.56h0ZM217.72,276.5c-2.82-5.75-4.55-6.87-5.43-3.51-.29,1.09-.92,1.74-1.41,1.44-2.08-1.28-.53-3.19,4.64-5.72,6.51-3.19,6.1-3.13,6.88-1.1.44,1.15.19,1.45-.89,1.03-.83-.32-2.17-.33-2.98-.02-1.22.47-1.02,1.45,1.13,5.72,1.43,2.84,3.03,5.43,3.55,5.77.72.46-1.23,1.89-2.59,1.89-.12,0-1.42-2.48-2.91-5.5h0ZM230.67,274.33c-1.33-1.33-.6-1.85,2.58-1.84,2.67,0,3.31-.42,3.59-2.39.32-2.29.15-2.37-4.09-1.79-2.8.38-4.86.18-5.59-.55-1.8-1.8-1.37-5.58.78-6.72,2.39-1.28,5.07-1.35,5.07-.13,0,.5-.82.69-1.82.43-2.13-.56-4.68,2.05-3.64,3.73.45.73,2.11.93,4.51.54,2.75-.44,4.24-.17,5.37.96,2.24,2.24,1.95,3.98-1.06,6.36-2.71,2.13-4.53,2.58-5.7,1.41h0ZM109.64,270.25c-.34-2.06-.62-5.21-.63-7,0-1.79-.41-3.25-.89-3.25-1.28,0-6.15,6.64-5.41,7.38.34.34.17.62-.38.62-2.46,0-1.99-1.58,1.7-5.77,2.18-2.48,3.97-5.17,3.97-5.99,0-3.35,3,1.11,3.12,4.64.07,2,.41,4.98.77,6.63l.65,3,2.48-3.37c1.36-1.85,2.37-3.75,2.24-4.21-.13-.46.41-.59,1.21-.29,1.18.45,1.09.93-.51,2.65-1.08,1.15-2.97,3.59-4.21,5.4s-2.53,3.31-2.87,3.31c-.34,0-.9-1.68-1.24-3.74h0ZM157.47,269.41c-1.14-.48,4.63-69.95,6.57-79.17,2.09-9.9,8.8-14.23,13.81-8.9,3,3.2,3.74,6.25,5.6,23.37,4.24,38.88,6.23,63.8,5.15,64.52-.6.4-2.47.74-4.16.75l-3.06.02-1.08-37.35c-.7-24.09-1.48-38.11-2.22-39.49-.63-1.18-2.33-2.43-3.79-2.8-2.08-.52-3.11-.12-4.83,1.88-2.04,2.37-2.23,3.9-2.84,23.4-.36,11.47-.94,28.4-1.28,37.61l-.63,16.75-3.11-.08c-1.71-.04-3.58-.27-4.14-.51h0ZM138,263.7c-24.92-10.88-42.07-29.69-50.36-55.2-6.42-19.77-5.99-38.53,1.36-58.66,1.65-4.52,3-8.25,3-8.29s-1.92.09-4.26.27c-3.19.25-4.94-.2-6.98-1.8-3.43-2.7-5.51-9.09-4.02-12.36.62-1.36,7.63-6.51,16.91-12.41,17.05-10.85,27.39-15.26,35.81-15.26,2.66,0,7.98-1.15,11.92-2.58,19.37-7.03,41.55-7.31,59.81-.77,4.02,1.44,10.91,2.96,15.31,3.37,4.4.41,10.7,1.74,14,2.95,8.01,2.92,37.34,21.6,38.74,24.67,1.49,3.27-.54,9.67-3.9,12.32-2.91,2.29-9.22,2.77-11.14.85-1.68-1.68-1.57-1.2,1.74,7.89,4.87,13.35,6.37,22.92,5.84,37.24-.41,11.01-.9,13.82-3.91,22.57-9.31,27.07-29.57,48.07-55.04,57.06l-3.77,1.33-.51-3.19c-.28-1.76-1.88-18.04-3.56-36.19-4-43.31-4.43-45.37-11.1-52.97-1.91-2.18-3.59-5.66-4.45-9.26-1.62-6.8-1.92-29.53-.42-32.34.89-1.66,2.15-1.93,8.79-1.93,9.75,0,13.47-1.78,20.88-9.96,7.32-8.09,8.14-8.46,13.61-6.11,2.45,1.05,4.62,2.32,4.82,2.81.76,1.89,31.2,19.36,33.22,19.07,2.83-.41,5.49-5.23,4.1-7.44-1.36-2.16-31.36-21.36-33.37-21.36-.85,0-3.86-.96-6.69-2.13-8.12-3.36-11.38-2.29-20.03,6.6-3.93,4.04-8.15,7.88-9.39,8.55-2.74,1.47-11.36.52-14.36-1.57-2.7-1.89-12.53-1.89-15.23,0-2.87,2.01-11.61,3.04-14.16,1.67-1.13-.61-5.36-4.45-9.39-8.54-8.87-8.99-12.11-10.07-20.22-6.71-2.83,1.17-5.84,2.13-6.69,2.13-1.97,0-31.99,19.17-33.32,21.27-1.44,2.28.79,6.54,3.81,7.29,1.96.49,5.66-1.31,17.78-8.69,8.42-5.12,15.47-9.7,15.67-10.18.2-.48,2.37-1.73,4.82-2.78,5.46-2.34,6.15-2.02,13.76,6.19,7.68,8.3,11.03,9.89,20.74,9.89,6.64,0,7.9.28,8.79,1.93,1.44,2.7,1.22,27.54-.3,33.31-.72,2.72-2.6,6.13-4.4,8-7.04,7.28-7.78,10.91-11.79,57.76-2.77,32.36-3.09,35.01-4.24,34.99-.4,0-4.11-1.49-8.23-3.29ZM141.53,255.6c1.92-2.94,5.12-23.67,3.63-23.54-.69.06-16.45,18.53-16.93,19.83-.31.86,8.65,6.05,10.5,6.08.67.01,1.94-1.06,2.8-2.38h0ZM213.03,255.48c2.73-1.38,4.97-2.89,4.97-3.35,0-.9-15.79-19.45-16.94-19.9-.94-.37-.22,11.2,1.05,16.77,1.12,4.92,3.36,9,4.95,9,.56,0,3.25-1.13,5.98-2.52h0ZM132.04,230.57c13.9-11.06,14.96-12.14,14.96-15.24,0-1.83-.23-3.33-.51-3.33-1.03,0-40.49,20.03-40.49,20.55,0,1.12,9.37,10.5,10.2,10.22.48-.16,7.61-5.65,15.84-12.2h0ZM239.79,231.86c-.26-.78-39.35-19.77-40.84-19.84-.3-.01-.36,1.56-.14,3.51.38,3.23,1.76,4.57,16.05,15.59l15.64,12.06,4.79-5.21c2.64-2.87,4.66-5.62,4.49-6.11ZM120.26,212.45c28.49-7.44,27.74-7.18,27.74-9.83,0-2.09-.37-2.2-6.25-1.92-3.44.17-15.88.75-27.66,1.29-11.78.54-21.65,1.23-21.94,1.52-.51.51,2.24,9.19,4.03,12.73.49.96,1.33,1.75,1.86,1.75s10.53-2.5,22.21-5.55h0ZM251.11,213.25c1.12-2.61,2.27-5.93,2.56-7.37.47-2.33.16-2.68-2.82-3.21-1.84-.32-14.49-.9-28.1-1.28l-24.75-.69v2.42c0,2.32.97,2.66,24.25,8.55,13.34,3.37,24.83,6.18,25.54,6.23.71.05,2.2-2.04,3.32-4.65ZM149.11,190.71c-.88-.88-57.66-21.71-59.17-21.71-.42,0-1.09,3.41-1.48,7.59-.55,5.86-.4,7.89.66,8.92.82.79,10.31,2.58,23.38,4.41,35.73,5,34.83,4.92,36.25,3.2.74-.89.89-1.89.36-2.41h0ZM229.5,189.94c14.85-2.27,27.35-4.65,27.77-5.28.67-1-.03-15.61-.79-16.47-.38-.43-58.8,21.77-59.77,22.71-.43.42-.49,1.54-.12,2.48.47,1.23,1.4,1.57,3.28,1.2,1.44-.28,14.77-2.37,29.62-4.64ZM144,178.08c0-1.05.53-2.09,1.19-2.31.77-.26.43-1.16-.96-2.54-1.84-1.84-2.48-1.98-4.44-.94-2.84,1.5-2.58,4.84.5,6.37,3.25,1.61,3.71,1.54,3.71-.57h0ZM206.2,178c1.34,0,1.8-.78,1.8-3.06,0-1.87-.41-2.81-1.04-2.41-.57.35-1.67.13-2.43-.51-1.08-.9-1.87-.67-3.59,1.05-1.97,1.97-2.03,2.3-.57,3.12.9.5,1.63,1.66,1.63,2.57,0,1.28.27,1.38,1.2.45.66-.66,2.01-1.2,3-1.2ZM128,169.12c0-1.03,1.01-2.58,2.25-3.45,1.85-1.29,1.95-1.58.53-1.62-.94-.03-2.32-1.21-3.07-2.63-1.2-2.29-1.49-2.4-2.65-1-.72.87-2.43,1.57-3.81,1.57-2.03,0-2.28.26-1.33,1.4.67.81.89,2.52.5,4.05-.61,2.43-.46,2.59,1.85,2.01,1.41-.35,2.8-.16,3.18.45,1.06,1.72,2.55,1.25,2.55-.8h0ZM223.21,169.67c2.33.03,2.57-.22,1.71-1.82-.66-1.24-.65-2.5.04-3.79,1.42-2.65,1.32-2.95-.78-2.4-1,.26-2.41-.23-3.12-1.09-1.77-2.13-3.06-1.98-3.06.36,0,1.06-.9,2.22-2,2.57-2.37.75-2.6,2.06-.5,2.86.82.32,1.5,1.54,1.5,2.71,0,1.67.38,1.97,1.75,1.35.96-.43,2.97-.77,4.46-.75h0ZM153,166.5c0-.82.68-1.5,1.5-1.5s1.5-.45,1.5-1-.4-1-.88-1-1.11-.85-1.38-1.88c-.37-1.42-1.13-1.76-3.12-1.38-1.44.28-2.62,1.09-2.62,1.8s-.23,1.9-.51,2.64c-.29.74.49,1.84,1.75,2.46,3.2,1.59,3.76,1.57,3.76-.13h0ZM197.32,166c1.52,0,1.68-.29.78-1.37-.63-.76-.87-2.07-.54-2.93.44-1.14-.15-1.64-2.23-1.88-3.89-.45-6.11,3.35-3.54,6.07.98,1.04,2.12,1.45,2.66.96.52-.47,1.82-.85,2.87-.85h0ZM114.79,156.38l2.62-2.12-2.29-.73c-1.26-.4-2.85-2.05-3.52-3.66q-1.23-2.92-3.07-.9c-1.03,1.14-3.09,2.03-4.7,2.03-2.81,0-2.83.05-1.27,2.43,1.22,1.86,1.34,2.91.52,4.43-1.55,2.89-1.36,3.24,1.37,2.56,1.52-.38,3.32,0,4.75,1.01,2.2,1.55,2.32,1.52,2.64-.66.19-1.25,1.51-3.23,2.95-4.4h0ZM236.07,161.41c.9-1.08,2.23-1.4,4.2-1.01,2.75.55,2.85.44,2.24-2.36-.35-1.61-.15-3.86.46-4.99,1-1.87.82-2.06-1.92-2.06-1.94,0-3.47-.72-4.28-2-1.7-2.72-2.77-2.51-2.77.52,0,1.72-.8,2.88-2.5,3.66-3.02,1.38-3.1,1.96-.5,3.59,1.13.71,2,2.33,2,3.74,0,2.86,1.17,3.2,3.07.91h0ZM142,152.29c2.47-.65,2.47-.82.02-3.27-1.09-1.09-1.71-2.66-1.39-3.5.67-1.74-1.16-2.09-2.19-.42-.37.61-1.86.86-3.31.58-2.51-.5-2.63-.33-2.72,3.9-.08,3.56.24,4.42,1.63,4.42.95,0,2.32.71,3.04,1.59,1.18,1.42,1.4,1.36,2.13-.59.44-1.2,1.71-2.42,2.8-2.7ZM211.55,154c2.52,0,3.27-1.37,1.39-2.54-.59-.37-.79-1.88-.45-3.43.56-2.55.4-2.74-1.95-2.29-1.41.27-3.23-.07-4.05-.75-1.26-1.04-1.49-.84-1.49,1.28,0,1.38-.68,2.77-1.5,3.09-1.96.75-1.94,2.64.02,2.64.84,0,2,1.24,2.57,2.75.93,2.44,1.16,2.55,2.02,1,.54-.96,2.08-1.75,3.43-1.75h0ZM126.04,142.4c.54-1.43,1.88-2.83,2.98-3.12,2.54-.66,2.53-1.92-.01-3.29-1.34-.72-2-2.09-2-4.19,0-3.02-.06-3.06-1.93-1.37-1.4,1.27-2.77,1.56-5,1.08-3.3-.72-3.6-.38-2.11,2.41.67,1.26.53,2.36-.47,3.68-2.07,2.74-1.83,3.39,1.27,3.39,1.68,0,3.25.78,4.01,2,1.63,2.61,2.08,2.53,3.27-.6h0ZM222.77,143c.8-1.28,2.33-2,4.26-2,2.95,0,2.98-.05,1.45-2.39-1.04-1.58-1.33-3.33-.88-5.14.65-2.6.54-2.71-2.06-2.06-1.82.46-3.56.16-5.14-.88-2.34-1.54-2.39-1.5-2.39,1.45,0,1.93-.72,3.46-2,4.26-2.62,1.64-2.52,2.42.39,3.15,1.45.36,2.64,1.59,3.02,3.11.76,3.03,1.7,3.17,3.36.51h0ZM90.04,256.81c-3.5-3.75-2.54-8.98,2.07-11.37,5.25-2.72,10.89.7,10.89,6.61s-8.79,9.24-12.96,4.76ZM98.92,254.92c3.37-3.37,3.58-4.11,2.04-6.99-1.33-2.49-5.01-2.47-8.21.04-3.19,2.51-3.93,5.33-2.09,7.96,2.03,2.9,4.67,2.57,8.26-1.01h0ZM244.81,255.11c-3.44-2.8-4.4-4.12-3.58-4.93.82-.82,2.26-.05,5.42,2.86,4.53,4.18,6.18,4.74,8.15,2.77,2.18-2.18,1.29-5.51-2.33-8.7-1.94-1.71-4-3.1-4.56-3.1s-.72-.49-.35-1.09c1.04-1.68,9.44,7.05,9.44,9.8s-3.29,6.31-5.75,6.26c-.96-.02-3.86-1.76-6.44-3.86ZM259,242.39c-2.48-1.84-5.34-3.36-6.37-3.37-4.17-.05.61-2.84,6.91-4.03,3.56-.67,6.47-1.56,6.47-1.98s-2.08-1.66-4.61-2.76c-2.54-1.1-4.16-2.28-3.6-2.62,1.21-.75,12.38,6.29,11.71,7.38-.26.42-2.56,1.07-5.11,1.45-2.55.38-5.6,1.05-6.76,1.49-1.95.73-1.81.98,1.88,3.17,2.2,1.31,4.34,2.26,4.75,2.13.41-.14.75.18.75.69,0,2.08-1.71,1.64-6-1.55ZM78.58,241.36c-.35-.9-.39-1.88-.11-2.17.29-.29.52-.23.52.13s2.27-.74,5.05-2.45c5.2-3.2,5.92-5.14,2.11-5.7-2.28-.34-2.03-2.18.3-2.18,1.72,0,7.91,9.6,7.07,10.96-1.08,1.74-2.36,1.15-1.84-.85.27-1.04.02-2.18-.56-2.54-1.05-.65-9.33,3.98-9.96,5.57-.54,1.39-1.91.97-2.58-.79ZM72.74,229.75c-.91-.69-2.07-2.41-2.6-3.82-.78-2.1-.59-2.79,1.01-3.8,1.8-1.12,1.87-1.05.85.86-1.46,2.73-.36,6.01,2.02,6.01,1.4,0,2.05-.96,2.51-3.75.9-5.43,1.25-6.23,2.98-6.89,3.39-1.3,7.54,6.26,4.47,8.15-.62.39-.91-.65-.75-2.69.22-2.74-.09-3.32-1.74-3.32s-2.06.77-2.3,4c-.26,3.48-2.21,6.5-4.2,6.5-.34,0-1.36-.56-2.26-1.25h0ZM269,225.36c-2.48-1.23-5.53-2.27-6.79-2.3-1.92-.05-2.12-.36-1.28-1.93.97-1.81,1.17-1.79,5.79.47,2.63,1.29,5.57,2.36,6.53,2.37,1.86.03,2.18.87.98,2.58-.49.69-2.26.29-5.23-1.19h0ZM267.17,214.69c-4.57-4.87-1.39-12.09,5.33-12.09,4.46,0,7.5,3.05,7.5,7.51,0,6.36-8.35,9.34-12.83,4.57h0ZM277.07,213.96c2.62-1.4,2.47-5.48-.29-7.41-2.64-1.85-7.89-2.04-9.58-.36-4.52,4.52,3.76,11.03,9.87,7.76h0ZM66.56,213.78c-6.05-8.64,5.74-17.23,12.16-8.86,1.82,2.37,1.53,5.5-.79,8.45-2.76,3.51-9.04,3.74-11.37.41ZM76.66,211.62c2.49-2.14,2.65-2.65,1.58-5-.94-2.05-1.9-2.62-4.49-2.62-4.19,0-7.74,2.46-7.74,5.36,0,5.02,5.98,6.29,10.66,2.26h0ZM63.04,196.07c-.57-1.06-1.04-3.43-1.04-5.26v-3.32l5.73-.31c3.15-.17,6.3-.79,7-1.37.96-.8,1.27-.47,1.27,1.36,0,1.97-.5,2.4-2.72,2.37-1.81-.03-2.84.55-3.07,1.71-.49,2.43,2.77,3.51,4.29,1.43,1.6-2.19,2.72-.95,1.39,1.54-.75,1.4-1.7,1.79-3.35,1.38-1.42-.36-2.78,0-3.54.91-1.73,2.08-4.72,1.86-5.96-.44h0ZM69,191.96c0-1.52-.68-1.96-3-1.96s-3,.47-3,1.8c0,.99.52,2.32,1.15,2.95,1.6,1.6,4.85-.26,4.85-2.79ZM268,196.75c0-.9,2.51-3.69,5.59-6.2,6.02-4.9,5.76-6.17-1.09-5.37-2.28.27-3.5,0-3.5-.8,0-1.2,4.19-1.03,11.65.47l3.15.63-5.98,4.75c-6.51,5.17-6.27,6.29,1.18,5.58,2.68-.26,4,.02,4,.83,0,1.16-1.62,1.14-10.1-.16-1.43-.22-3.12.12-3.75.75-.86.86-1.15.74-1.15-.5ZM170.79,169.25c-.2-.96.31-2.26,1.13-2.88,2.04-1.55,4.98.34,4.33,2.79-.63,2.41-4.97,2.49-5.46.09h0ZM415.48,295.83c1.41-.64,3.57-2.78,4.8-4.75,1.98-3.18,2.23-4.91,2.23-15.58,0-13.25-1.13-16.67-6.54-19.86-3.72-2.2-10.72-2.08-14.54.25-5,3.05-6.42,7.39-6.42,19.61s1.42,16.57,6.42,19.61c3.49,2.13,10.21,2.47,14.06.71ZM403.86,290.09c-2.26-1.83-2.36-2.47-2.36-14.59s.1-12.76,2.36-14.59c4.4-3.56,10.04-1.94,12.1,3.48,1.37,3.62,1.33,18.47-.07,22.48-1.84,5.28-7.59,6.82-12.03,3.22h0ZM466.32,295.88c3.86-1.97,5.64-5.12,5.66-10,.03-6.14-2.61-9.36-10.65-12.96-7.28-3.27-9.24-6.24-7.08-10.76,2.53-5.3,11.75-3.34,11.75,2.5,0,1.94.52,2.35,3,2.35,3.5,0,3.97-2.23,1.48-7.03-2.76-5.35-11.49-7.68-17.48-4.69-3.6,1.8-6.21,7.41-5.45,11.72.84,4.76,3.83,7.74,11.05,11.02,6.16,2.79,7.4,4.21,7.4,8.49,0,5.7-8.15,7.65-11.93,2.85-1.14-1.45-2.07-3.25-2.07-4,0-.86-1.15-1.37-3.11-1.37-2.88,0-3.06.2-2.45,2.75.87,3.65,3.69,7.46,6.66,8.99,3.01,1.55,10.33,1.63,13.22.15h0ZM566.47,293.73c7.1-7.1,7.44-28.33.58-36.01-2.36-2.64-3.59-3.14-8.74-3.51-5.55-.4-6.25-.21-9.48,2.63-4.34,3.81-5.83,8.62-5.83,18.77,0,10.36,1.28,14.55,5.55,18.3,3.02,2.65,4.29,3.08,9.08,3.08s5.93-.36,8.83-3.27ZM551.92,289.42c-2.27-2.42-2.42-3.3-2.42-13.92s.15-11.5,2.42-13.92c2.85-3.03,6.89-3.36,10.01-.83,5.39,4.36,5.39,25.14,0,29.5-3.13,2.53-7.17,2.2-10.01-.83ZM702.03,295.48c3.31-1.71,5.97-6.13,5.97-9.93,0-2.17-.45-2.55-3-2.55s-3,.41-3,2.28c0,3.71-2.74,6.72-6.12,6.72-6.85,0-8.88-3.77-8.88-16.5s2.03-16.5,8.88-16.5c3.38,0,6.12,3.01,6.12,6.72,0,1.86.54,2.28,3,2.28s3-.38,3-2.55c0-3.34-2.42-7.93-5.22-9.89-1.33-.93-4.33-1.56-7.43-1.56-4.19,0-5.82.52-8.41,2.7-4.73,3.98-5.94,7.85-5.94,18.95,0,15.18,3.91,21.22,13.8,21.31,2.36.02,5.62-.64,7.23-1.48h0ZM800.98,295.35c2.93-1.73,6.02-7.06,6.02-10.39,0-1.5-.68-1.97-2.88-1.97-2.37,0-2.98.51-3.45,2.88-.8,4.01-3.25,6.12-7.09,6.12-6.05,0-7.08-2.43-7.08-16.69,0-11.91.11-12.57,2.36-14.4,4.75-3.84,10.62-1.75,11.81,4.21.47,2.37,1.08,2.88,3.45,2.88s2.88-.45,2.88-2.1c0-3.55-3.12-8.91-6.09-10.45-3.92-2.03-10.8-1.82-14.49.43-5.33,3.25-6.63,7.6-6.25,20.94.3,10.39.59,12.04,2.71,15,1.31,1.83,3.33,3.71,4.5,4.19,3.54,1.43,10.65,1.09,13.61-.66ZM927.32,295.88c3.86-1.97,5.64-5.12,5.66-10,.03-6.14-2.61-9.36-10.65-12.96-7.28-3.27-9.24-6.24-7.08-10.76,2.53-5.3,11.75-3.34,11.75,2.5,0,1.94.52,2.35,3,2.35,3.5,0,3.97-2.23,1.48-7.03-2.76-5.35-11.49-7.68-17.48-4.69-3.6,1.8-6.21,7.41-5.45,11.72.84,4.76,3.83,7.74,11.05,11.02,6.16,2.79,7.4,4.21,7.4,8.49,0,5.7-8.15,7.65-11.93,2.85-1.14-1.45-2.07-3.25-2.07-4,0-.86-1.15-1.37-3.11-1.37-2.88,0-3.06.2-2.45,2.75.87,3.65,3.69,7.46,6.66,8.99,3.01,1.55,10.33,1.63,13.22.15h0ZM1025.72,293.48c3.29-3.29,3.49-3.86,3.05-8.51-.59-6.12-2.58-8.5-9.77-11.7-6.95-3.09-9-4.93-9-8.09,0-3.44,2.73-6.17,6.16-6.17s6.84,3.11,6.84,6c0,1.56.67,2,3,2,3.51,0,3.81-1.48,1.37-6.64-2.03-4.27-5.9-6.36-11.8-6.36s-10.45,3.74-11.24,9.59c-.88,6.53,1.49,9.86,9.92,13.96,3.94,1.92,7.51,4.04,7.94,4.72,1.32,2.07.9,5.98-.84,7.9-3.57,3.95-12.34.99-12.34-4.17,0-1.56-.67-2-3-2-4.52,0-4.12,4.11.88,9.12,3.6,3.6,4.29,3.88,9.6,3.88s6.03-.31,9.24-3.52ZM1103.93,295.54c4.87-2.52,6.07-7.5,6.07-25.06v-15.48h-6v15.57c0,18.98-.86,21.39-7.68,21.42-5.92.03-6.32-1.24-6.32-20.06v-16.93h-6l.04,17.25c.04,18.43.57,20.86,5.07,23.35,3.21,1.78,11.32,1.74,14.82-.07h0ZM1241.58,295.11c5.02-3.06,6.75-8.08,6.75-19.61s-1.73-16.55-6.75-19.61c-3.49-2.13-10.21-2.47-14.06-.71-5.06,2.31-6.96,7.22-7.37,19.04-.32,9.27-.09,11.28,1.71,15,1.14,2.36,3.33,5.07,4.86,6.01,3.72,2.31,10.99,2.25,14.86-.11h0ZM1229.74,290.75c-2.68-2.04-3.74-6.36-3.74-15.35,0-13.21,3.05-17.86,10.48-16,4.41,1.11,5.73,5.48,5.35,17.8-.31,10.12-.52,11.12-2.7,12.88-2.7,2.19-7,2.49-9.4.66h0ZM366.29,293.98c5.11-4.02,5.83-12.93,1.43-17.72-1.95-2.12-1.96-2.34-.35-4.13,3.9-4.31,2.58-13.48-2.32-16.1-1.06-.57-5.78-1.03-10.49-1.03h-8.57v41h8.87c7.37,0,9.3-.34,11.43-2.02h0ZM352,283.95v-7.05l5.24.3c4.63.27,5.4.63,6.59,3.13,2.77,5.8-.61,10.68-7.4,10.68h-4.43v-7.05ZM352,266.13v-6.13h4.43c4.94,0,7.57,1.87,7.57,5.38,0,3.8-2.28,5.78-7.31,6.35l-4.69.53v-6.13ZM510,278v-18h5.5c5.2,0,5.5-.14,5.5-2.5v-2.5h-28v2.5c0,2.36.3,2.5,5.5,2.5h5.5v36h6v-18ZM603.22,281.75l.28-14.25,7.42,14.25c7.29,13.99,7.49,14.25,10.75,14.25h3.33v-41h-6v14.7c0,8.65-.37,14.31-.89,13.75-.49-.52-4.13-7.14-8.09-14.7-6.74-12.87-7.38-13.75-10.11-13.75h-2.91v41h5.95l.28-14.25ZM747,287.62c0-7.86.29-8.99,4.6-18.25,7.09-15.22,6.91-14.37,3.03-14.37-3.26,0-3.39.17-7.2,9.61l-3.88,9.61-2.63-5.89c-1.45-3.24-3.24-7.56-3.97-9.61-1.18-3.27-1.74-3.72-4.64-3.72-1.81,0-3.3.19-3.3.42s2.47,5.89,5.5,12.58c5.18,11.45,5.5,12.62,5.5,20.08v7.92h7v-8.38ZM853.82,293.75c-.3-2.1-.88-2.27-8.57-2.54l-8.25-.29v-35.92h-6v41h11.57c11.43,0,11.57-.03,11.25-2.25ZM883,275.5v-20.5h-6v41h6v-20.5ZM971,278v-18h5.5c5.2,0,5.5-.14,5.5-2.5v-2.5h-28v2.5c0,2.36.3,2.5,5.5,2.5h5.5v36h6v-18ZM1141.02,281.75l.02-14.25,7.54,14.25c7.08,13.39,7.71,14.25,10.48,14.25h2.94v-41h-6l-.02,14.75-.02,14.75-7.72-14.75c-7.1-13.56-7.95-14.75-10.48-14.75h-2.75v41h6l.02-14.25ZM1195,275.5v-20.5h-6v41h6v-20.5ZM1279.22,281.25l.28-14.75,7.53,14.5c7.15,13.76,7.69,14.52,10.75,14.81l3.22.31v-41.13h-5.95l-.28,14.53-.28,14.53-7.5-14.51c-7.31-14.15-7.58-14.51-10.75-14.53l-3.25-.02v41h5.95l.28-14.75ZM571.42,208.55c12.14-3.08,24.06-9.33,31.57-16.55,5.56-5.34,10.62-13.22,9.58-14.9-.28-.46-7.54-5.02-16.12-10.14-12.5-7.45-15.79-9.02-16.51-7.88-.49.78-.91,1.74-.91,2.14-.03,1.59-6.55,8.01-10.4,10.25-2.26,1.31-6.93,2.89-10.38,3.51-16.79,3-30.74-5.9-36.29-23.14-2.79-8.69-2.39-21.35.96-30.03,2.91-7.55,9.63-14.9,16.31-17.86,7.75-3.43,19.28-3.23,27.38.48,6.96,3.19,9.9,5.73,12.52,10.83,1.06,2.06,2.13,3.75,2.39,3.75s7.21-4.78,15.44-10.63l14.97-10.63-1.61-3.12c-.88-1.72-4.8-6.31-8.71-10.21-12.71-12.69-27.87-18.36-49.19-18.39-23.97-.04-43.4,8.93-57.33,26.46-11.33,14.26-15.52,26.38-15.56,45.02-.03,13.92,1.91,21.65,8.77,35,6.04,11.74,20.03,25.54,31.7,31.27,11.04,5.42,18.11,7.04,31.12,7.14,8.19.06,12.84-.48,20.29-2.37h0ZM708.3,209.05c11.75-3.01,18.34-6.66,26.44-14.65,5.63-5.56,8.12-9,11.22-15.52,7.92-16.63,8.98-25.54,9.02-75.63l.03-36.25h-40.9l-.3,43.25c-.3,42.89-.32,43.3-2.68,49.16-3.42,8.49-9.32,14.08-16.43,15.55-16.04,3.33-26.86-6.27-29.61-26.28-.61-4.42-1.08-23.88-1.08-44.75v-36.93h-40.15l.4,44.25c.37,40.95.56,44.85,2.5,52.25,2.82,10.76,5.46,16.65,10.86,24.22,7.62,10.68,18.12,17.73,31.74,21.3,10.08,2.64,28.67,2.66,38.93.03h0ZM1283.3,209.41c15.97-3.53,27.85-12.11,33.52-24.19,2.48-5.28,2.68-6.71,2.68-18.72s-.27-13.6-2.35-18.2c-3.04-6.73-10.95-14.17-19.74-18.58-3.8-1.91-14.85-6.04-24.57-9.18-9.71-3.14-18.63-6.61-19.81-7.71-1.59-1.48-2.07-2.94-1.84-5.66.26-3.17.77-3.83,3.81-4.9,7.38-2.61,21.83.59,36.87,8.17,4.06,2.04,7.74,3.35,8.18,2.89.45-.45,4.43-7.78,8.86-16.28,5.86-11.25,7.71-15.66,6.82-16.23-3.55-2.25-20.37-9.03-28.23-11.39-11.7-3.5-29.6-4.42-39.73-2.05-20.11,4.71-34.6,18.53-37.86,36.11-1.68,9.03-.74,19.99,2.26,26.52,5.34,11.6,16.28,18.62,41.33,26.52,18.21,5.74,22.26,7.67,23.09,10.97,1.48,5.88-2.48,7.9-14.09,7.21-9.58-.57-23.67-5.01-34.2-10.78-3.96-2.17-7.57-3.94-8.02-3.94s-4.62,7.64-9.26,16.98c-5.97,12.01-8.13,17.29-7.38,18.05,1.81,1.81,18.46,8.62,26.87,10.98,18.33,5.15,38.88,6.48,52.8,3.4h0ZM439.06,207.93c15.53-3.65,26.84-12.6,30.11-23.83,2.03-6.97,1.51-19.49-1.09-26.3-2.9-7.59-9.53-14.8-16.9-18.38l-5.9-2.86,4.46-3.17c10.79-7.67,16.77-22.7,14.33-36.02-1.57-8.61-6.31-17.48-12.11-22.7-8.55-7.69-8.31-7.66-59.14-7.66h-44.82v143h41.13c38.06,0,41.78-.15,49.93-2.07h0ZM388,164.5v-11.5h16.75c14.75,0,17.13.24,19.9,1.93,5.98,3.65,6.88,13.83,1.64,18.68-2.52,2.34-2.99,2.39-20.43,2.39h-17.85v-11.5ZM388,111.5v-10.5h15.44c14.58,0,15.59.13,18.03,2.25,3.16,2.74,4.29,8.49,2.51,12.78-2.12,5.13-5.15,5.97-21.44,5.97h-14.55v-10.5ZM971.01,196.75l3.49-13.25,20.13-.27,20.13-.27,2.2,8.27c1.21,4.55,2.87,10.63,3.69,13.52l1.49,5.25h40.62l-3.38-10.75c-1.86-5.91-12.08-37.97-22.71-71.25l-19.33-60.5-22.59-.27-22.59-.27-3.07,9.77c-1.69,5.37-11.82,36.99-22.52,70.27l-19.46,60.5-.31-16-.31-16-32.75-.26-32.75-.26v-107.97h-40v143h146.52l3.49-13.25ZM982.24,154.25c.26-.96,3.11-11.74,6.34-23.95s6.02-22.04,6.21-21.85c.19.19,3.17,10.97,6.61,23.95l6.26,23.6h-12.95c-11.85,0-12.91-.15-12.47-1.75h0ZM1162.5,208.5c10.09-2.12,20.44-7.52,25.76-13.44,6.12-6.81,8.15-13.59,7.5-25.04-.85-14.87-7.35-25.06-19.74-30.92l-5.81-2.75,3.44-1.85c4.84-2.61,10.12-8.76,13.16-15.36,2.23-4.84,2.6-7.03,2.63-15.63.04-8.88-.27-10.66-2.73-15.93-4.09-8.76-8.82-13.97-15.88-17.49l-6.15-3.08h-91.68v143l41.25-.02c32.39-.01,42.75-.33,48.25-1.49h0ZM1114,164.44v-11.56l17.58.31,17.58.31,2.92,3.27c2.41,2.7,2.92,4.15,2.92,8.33s-.46,5.52-2.92,7.98l-2.92,2.92h-35.15v-11.56ZM1114,111.57v-10.57h15.55c15.17,0,15.6.06,18,2.45,3.46,3.46,3.48,11.24.04,15.24l-2.41,2.81-15.59.32-15.59.32v-10.57Z"/>
</svg>
